<?xml version="1.0" encoding="UTF-8"?> <svg xmlns="http://www.w3.org/2000/svg" width="160" height="60" viewBox="0 0 160 60" fill="none"><g id="curology"><g id="vector"><path d="M26.1763 14C18.3449 14 12 20.266 12 28C12 35.734 18.3449 42 26.1763 42C34.0078 42 40.3526 35.734 40.3526 28C40.3526 20.266 34.0078 14 26.1763 14ZM26.8657 36.5957C21.6304 36.6809 17.9355 32.6277 17.8063 28.234C17.7416 25.3085 19.0989 22.5638 20.5316 22.5213C21.4688 22.5 22.0829 23.0745 22.9769 25.5106C25.53 32.4894 29.9143 33.7872 31.8533 33.7447C32.6397 33.7234 33.1137 33.5957 33.3183 33.4681L33.4045 33.5745C32.9844 34.117 30.9808 36.5426 26.8765 36.5957H26.8657ZM31.3147 26.1489C27.1674 26.2128 28.1261 19.7872 24.0973 19.8404C23.9034 19.8404 23.591 19.8617 23.4617 19.883L23.3755 19.7128C24.6143 19.234 25.67 19.0851 26.8227 19.0851C30.2267 19.0851 33.6523 20.9362 33.6954 23.6064C33.7169 25.0745 32.7366 26.1277 31.3147 26.1489Z" fill="#1B3987"></path><path fill-rule="evenodd" clip-rule="evenodd" d="M58.6547 33.8936C60.5183 33.8936 62.1557 33 63.0283 31.7979L65.2474 33.7128C63.8254 35.6277 61.5417 37.0532 58.6655 37.0532C53.958 37.0532 49.8107 33.7021 49.8107 28.3936C49.8107 23.0851 54.0981 19.7128 58.6116 19.7128C61.4986 19.7128 63.75 21.0426 65.1935 23.1064L62.8128 25.1702C61.8756 23.7447 60.5722 22.8298 58.6116 22.8298C56.0909 22.8298 53.204 24.617 53.204 28.383C53.204 31.9255 55.9401 33.8723 58.6547 33.8723V33.8936ZM106.516 19.7234H103.349V36.7021H106.516V19.7234ZM87.9553 28.2553C87.5998 28.1809 87.2874 28.1596 87.0074 28.1596C85.3915 28.1596 83.9804 28.9362 83.9804 31.4149V36.6915H80.8133V25.1489H83.3663L83.7326 27.0106C84.3897 25.4787 86.221 25.0532 87.2228 25.0532C87.4813 25.0532 87.7183 25.0745 87.9553 25.1064V28.2553ZM95.3559 34.2128C93.8154 34.2128 92.275 33.0851 92.275 30.9255C92.275 28.766 93.8154 27.6383 95.3559 27.6383C96.8963 27.6383 98.4368 28.7447 98.4368 30.9255C98.4368 33.1064 96.8963 34.2128 95.3559 34.2128ZM95.3559 24.8085C91.8549 24.8085 89.108 27.3617 89.108 30.9255C89.108 34.4894 91.8549 37.0426 95.3559 37.0426C98.8569 37.0426 101.604 34.4574 101.604 30.9255C101.604 27.3936 98.8569 24.8085 95.3559 24.8085ZM111.611 30.9255C111.611 33.0851 113.141 34.2128 114.692 34.2128C116.243 34.2128 117.773 33.1064 117.773 30.9255C117.773 28.7447 116.233 27.6383 114.692 27.6383C113.152 27.6383 111.611 28.766 111.611 30.9255ZM108.444 30.9255C108.444 27.3617 111.191 24.8085 114.692 24.8085C118.193 24.8085 120.94 27.3936 120.94 30.9255C120.94 34.4574 118.193 37.0426 114.692 37.0426C111.191 37.0426 108.444 34.4894 108.444 30.9255ZM74.6623 35.4468C74.016 36.5319 72.6587 37 71.4307 37C68.5975 37 66.9817 34.9574 66.9817 32.4468V25.1489H70.1488V31.8085C70.1488 33.0957 70.8166 34.1277 72.2924 34.1277C73.7682 34.1277 74.5115 33.1915 74.5115 31.8511V25.1383H77.6786V36.6809H74.9101L74.6839 35.4362L74.6623 35.4468ZM133.296 29.5851C133.296 31.0638 132.52 32.3085 131.421 33.1489C132.606 34.0745 133.49 35.4043 133.49 37.0957C133.49 39.9255 131.184 41.9787 128.136 41.9787C126.035 41.9787 124.204 40.9149 123.364 39.2021L123.299 39.0638L125.82 37.8511L125.885 38C126.337 39.0426 127.403 39.4149 128.179 39.4149C129.547 39.4149 130.7 38.3511 130.7 37C130.7 35.5106 129.622 34.4681 128.179 34.4681C127.199 34.4681 126.315 35 125.906 35.8191L125.841 35.9574L123.375 34.766L123.45 34.6277C123.773 34 124.29 33.5 124.861 33.1383C123.849 32.4468 123.008 31.0532 123.008 29.5745C123.008 26.7234 125.238 24.7872 128.157 24.7872C128.922 24.7872 129.655 24.9362 130.312 25.2128L131.885 23.6596L133.619 25.3723L132.272 26.7021C132.93 27.5426 133.307 28.3298 133.307 29.5745L133.296 29.5851ZM130.43 29.617C130.43 28.2872 129.461 27.3404 128.136 27.3404C126.811 27.3404 125.852 28.3085 125.852 29.617C125.852 30.9255 126.8 31.8936 128.136 31.8936C129.472 31.8936 130.43 30.9468 130.43 29.617ZM139.91 34.9255L135.084 25.1383H138.628L141.601 31.5957L144.618 25.1383H148L139.651 41.8191H136.301L139.684 35.3723L139.921 34.9255H139.91Z" fill="#1B3987"></path></g></g></svg> 