<?xml version="1.0" encoding="UTF-8"?> <svg xmlns="http://www.w3.org/2000/svg" width="160" height="60" viewBox="0 0 160 60" fill="none"><g id="rad-bikes"><g id="vector"><path d="M46.2896 26.5038C50.0893 26.5038 53.1707 29.6504 53.1707 33.5303C53.1707 37.4103 50.0893 40.5568 46.2896 40.5568C42.4899 40.5568 39.4085 37.4103 39.4085 33.5303C39.4085 31.3774 40.3584 29.3428 42.0266 28.018L44.5056 34.2401C44.8995 35.2574 46.0579 35.7542 47.0542 35.3284C48.0504 34.9262 48.537 33.7433 48.1199 32.726L45.6409 26.5038C45.8494 26.5275 46.0811 26.5038 46.2896 26.5038ZM46.2896 25.108C45.4324 25.108 44.5519 25.2499 43.741 25.5102L46.8225 33.2938C46.9383 33.6013 46.7993 33.9325 46.5213 34.0745C46.2201 34.1928 45.8957 34.0508 45.7567 33.7669C45.7567 33.7669 45.7567 33.7669 45.7567 33.7433L42.6753 25.9597C39.9182 27.3319 38.0184 30.2182 38.0184 33.554C38.0184 38.2147 41.7254 42 46.2896 42C50.8538 42 54.5608 38.2147 54.5608 33.554C54.5608 28.8933 50.877 25.108 46.2896 25.108Z" fill="#1B3987"></path><path d="M43.3704 24.6112L41.0767 18.8622C40.984 18.6493 40.7755 18.4837 40.5438 18.5073C40.5438 18.5073 40.5438 18.5073 40.5206 18.5073H37.4855L36.7673 18.0815C36.4893 17.9159 36.1417 18.0105 35.9796 18.2944C35.8174 18.5783 35.91 18.9332 36.1881 19.0988C36.1881 19.0988 36.1881 19.0988 36.2112 19.0988L37.2075 19.6903H40.1963L42.3278 25.0607C42.4436 25.3682 42.7911 25.5102 43.0923 25.3682C43.3472 25.2263 43.4862 24.8951 43.3704 24.6112Z" fill="#1B3987"></path><path d="M23.3526 25.8887C22.9588 25.6995 22.4954 25.8887 22.3101 26.2909C22.1247 26.6931 22.3101 27.1663 22.7039 27.3555H22.7271C25.1366 28.4202 26.6889 30.8333 26.6889 33.5067C26.6889 37.1974 23.7465 40.202 20.1322 40.202C16.5179 40.202 13.5755 37.1974 13.5755 33.5067C13.5755 30.8096 15.1509 28.3728 17.5836 27.3319C17.9775 27.1663 18.1629 26.6931 18.0007 26.2909C17.8385 25.8887 17.3751 25.6995 16.9813 25.8651C13.9693 27.1663 12 30.1709 12 33.5067C12 38.0727 15.6375 41.8107 20.1322 41.8107C24.6269 41.8107 28.2644 38.0964 28.2644 33.5067C28.2644 30.1945 26.3414 27.1899 23.3526 25.8887ZM20.1785 27.5685C20.6187 27.5685 20.9663 27.2136 20.9663 26.7641V24.4219C20.9663 23.9724 20.6187 23.6175 20.1785 23.6175C19.7383 23.6175 19.3908 23.9724 19.3908 24.4219V26.7641C19.3908 27.2136 19.7383 27.5685 20.1785 27.5685Z" fill="#1B3987"></path><path d="M38.4123 25.1553L30.5813 30.9043C30.1874 29.2719 29.3765 27.7577 28.2876 26.5038L38.4123 25.1553ZM40.3816 23.4756L24.8354 25.5338C27.6157 27.0243 29.4923 30.0053 29.4923 33.412L40.984 24.9897L40.3816 23.4756Z" fill="#1B3987"></path><path d="M63.8051 29.9343L65.4501 32.8443H63.9441L62.3686 30.0762H61.1639V32.8443H59.8433V26.149H62.693C64.2221 26.149 64.9867 26.7877 64.9867 28.0889C65.0099 29.0589 64.5928 29.674 63.8051 29.9343ZM62.9942 28.846C63.5271 28.846 63.7819 28.5858 63.8051 28.1126C63.7819 27.6631 63.5271 27.4502 62.9942 27.4265H61.1407V28.846H62.9942Z" fill="#1B3987"></path><path d="M66.0756 32.8679L68.6937 26.1726H70.0143L72.6324 32.8679H71.2422L70.8484 31.8506H67.8828L67.4889 32.8679H66.0756ZM69.3888 27.947L68.3925 30.5021H70.3618L69.3888 27.947Z" fill="#1B3987"></path><path d="M73.3042 26.1726H75.8296C77.8685 26.1726 78.8879 27.2846 78.8879 29.5321C78.8879 31.756 77.8685 32.8916 75.8296 32.8916H73.3042V26.1726ZM75.8296 31.5194C76.9881 31.5194 77.5673 30.857 77.5904 29.5084C77.5904 28.1599 77.0112 27.4975 75.8296 27.4975H74.6249V31.5194H75.8296Z" fill="#1B3987"></path><path d="M83.3595 26.1726H86.2324C87.7615 26.1726 88.5261 26.8114 88.5261 28.1126C88.5261 29.4375 87.7615 30.1236 86.2324 30.1236H84.6801V32.8916H83.3595V26.1726ZM86.5104 28.846C87.0433 28.846 87.2981 28.5858 87.3213 28.1126C87.2981 27.6631 87.0433 27.4502 86.5104 27.4265H84.6569V28.846H86.5104Z" fill="#1B3987"></path><path d="M90.1015 31.8979C89.476 31.2591 89.1516 30.4548 89.1516 29.5084C89.1516 28.5621 89.476 27.7577 90.1015 27.1189C90.7271 26.4802 91.5148 26.149 92.4416 26.149C93.3683 26.149 94.1561 26.4802 94.7816 27.1189C95.4072 27.7577 95.7315 28.5621 95.7315 29.5084C95.7315 30.4548 95.4072 31.2591 94.7816 31.8979C94.1561 32.5367 93.3683 32.8679 92.4416 32.8679C91.5148 32.8679 90.7271 32.5367 90.1015 31.8979ZM92.4416 31.614C92.6964 31.614 92.9745 31.5667 93.2061 31.4721C93.461 31.3774 93.6695 31.2118 93.8549 31.0226C94.2024 30.5967 94.4109 30.0762 94.4109 29.5321C94.4109 28.988 94.2256 28.4438 93.8549 28.0416C93.4842 27.6394 93.0208 27.4265 92.4184 27.4265C92.1636 27.4265 91.8855 27.4738 91.6538 27.5685C91.399 27.6631 91.1905 27.8287 91.0051 28.018C90.6576 28.4438 90.4491 28.9643 90.4491 29.5084C90.4491 30.0526 90.6344 30.5967 91.0051 30.9989C91.3758 31.4011 91.8624 31.614 92.4416 31.614Z" fill="#1B3987"></path><path d="M100.69 27.947L99.369 32.8679H98.0484L96.2876 26.1726H97.6777L98.8129 30.7387L99.9945 26.1726H101.361L102.497 30.7387L103.632 26.1726H105.022L103.261 32.8679H101.987L100.69 27.947Z" fill="#1B3987"></path><path d="M105.995 32.8679V26.1726H110.814V27.4265H107.316V28.846H109.934V30.0999H107.316V31.614H110.814V32.8679H105.995Z" fill="#1B3987"></path><path d="M116.097 29.9343L117.742 32.8443H116.236L114.66 30.0762H113.456V32.8443H112.135V26.149H114.985C116.514 26.149 117.278 26.7877 117.278 28.0889C117.302 29.0589 116.908 29.674 116.097 29.9343ZM115.286 28.846C115.819 28.846 116.074 28.5858 116.097 28.1126C116.074 27.6631 115.819 27.4502 115.286 27.4265H113.432V28.846H115.286Z" fill="#1B3987"></path><path d="M126.129 29.3192C126.708 29.7214 127.009 30.2182 127.032 30.857C126.963 32.1108 126.314 32.7969 125.04 32.8679H121.356V26.1726H124.831C125.943 26.2436 126.523 26.906 126.569 28.1363C126.592 28.7277 126.43 29.1299 126.129 29.3192ZM124.53 28.846C125.063 28.846 125.318 28.5621 125.341 28.018C125.318 27.6867 125.063 27.5211 124.53 27.4975H122.677V28.846H124.53ZM122.7 31.8269H124.854C125.48 31.8269 125.781 31.4957 125.804 30.857C125.781 30.4311 125.48 30.1945 124.878 30.1945H122.723V31.8269H122.7Z" fill="#1B3987"></path><path d="M128.353 26.149H129.65V32.8443H128.353V26.149Z" fill="#1B3987"></path><path d="M132.315 26.1726V28.846L134.493 26.1726H135.975L133.404 29.2955L136.508 32.8679H134.794L132.292 29.9816V32.8679H130.971V26.1726H132.315Z" fill="#1B3987"></path><path d="M137.273 32.8679V26.1726H142.092V27.4265H138.594V28.846H141.212V30.0999H138.594V31.614H142.092V32.8679H137.273Z" fill="#1B3987"></path><path d="M146.981 26.3855C147.328 26.5511 147.652 26.7641 147.93 27.048L147.05 27.947C146.749 27.5921 146.355 27.4029 145.822 27.4029C145.289 27.4029 144.965 27.5211 144.826 27.7814C144.687 28.0416 144.687 28.2545 144.826 28.4202C144.965 28.6094 145.312 28.7277 145.822 28.8223C146.355 28.8697 146.888 29.0589 147.328 29.3901C147.791 29.6977 148 30.1945 148 30.8806C148 31.4248 147.768 31.8743 147.282 32.2764C146.795 32.655 146.216 32.8679 145.59 32.8679C144.988 32.8679 144.478 32.7733 144.061 32.6077C143.667 32.4421 143.32 32.2055 143.019 31.8979L143.899 30.9989C144.2 31.3538 144.687 31.5667 145.382 31.614C145.961 31.614 146.332 31.4957 146.471 31.2355C146.54 31.1172 146.587 30.9989 146.587 30.857C146.587 30.715 146.54 30.5967 146.471 30.4784C146.332 30.2182 145.961 30.0762 145.382 30.0053C144.872 29.9579 144.386 29.7923 143.945 29.5084C143.505 29.2482 143.297 28.775 143.297 28.1126C143.297 27.5211 143.552 27.048 144.038 26.6931C144.478 26.3619 145.011 26.1726 145.567 26.149C146.146 26.1726 146.633 26.2436 146.981 26.3855Z" fill="#1B3987"></path></g></g></svg> 